<?xml version="1.0" standalone="no"?>
<!DOCTYPE svg PUBLIC "-//W3C//DTD SVG 20010904//EN"
 "http://www.w3.org/TR/2001/REC-SVG-20010904/DTD/svg10.dtd">
<svg version="1.0" xmlns="http://www.w3.org/2000/svg"
 width="1280.000000pt" height="640.000000pt" viewBox="0 0 1280.000000 640.000000"
 preserveAspectRatio="xMidYMid meet">
<g transform="translate(0.000000,640.000000) scale(0.100000,-0.100000)"
fill="#000000" stroke="none">
<path d="M4933 3400 c-109 -26 -217 -115 -267 -220 -29 -60 -31 -73 -31 -170
1 -119 22 -184 77 -236 l30 -29 -21 35 c-33 55 -61 156 -61 224 0 266 238 436
502 356 96 -28 195 -82 348 -189 124 -87 308 -197 315 -189 2 2 -35 27 -83 55
-48 28 -123 77 -167 109 -237 171 -312 214 -433 245 -77 19 -152 23 -209 9z"/>
<path d="M7652 3390 c-92 -25 -203 -82 -317 -166 -127 -93 -262 -182 -318
-211 -27 -13 -46 -27 -43 -30 8 -8 195 103 332 199 222 154 345 204 487 196
64 -3 94 -10 137 -32 134 -67 210 -191 210 -342 0 -68 -28 -169 -61 -224 l-21
-35 30 29 c55 52 76 117 77 236 0 95 -3 111 -29 167 -36 78 -123 164 -203 199
-80 36 -183 41 -281 14z"/>
<path d="M6110 3323 c13 -10 63 -51 110 -91 47 -41 106 -85 133 -98 l47 -24
48 24 c26 13 85 57 132 98 47 40 97 81 110 91 24 17 24 17 -10 1 -19 -9 -73
-45 -120 -79 -47 -35 -102 -71 -122 -81 -36 -17 -40 -17 -75 0 -21 10 -76 46
-123 81 -47 34 -101 70 -120 79 -34 16 -34 16 -10 -1z"/>
<path d="M6017 3110 c75 -110 168 -170 304 -198 73 -15 85 -15 158 0 136 28
229 88 304 198 28 41 24 39 -45 -28 -134 -128 -288 -171 -458 -127 -93 24
-136 49 -219 129 -69 66 -72 68 -44 26z"/>
<path d="M4907 3079 c-22 -12 -44 -34 -54 -54 -17 -37 -10 -61 10 -34 35 48
153 67 214 35 90 -46 115 -166 56 -264 -14 -24 -12 -24 15 5 33 34 52 87 52
143 -1 70 -59 155 -123 179 -45 17 -128 12 -170 -10z"/>
<path d="M7715 3086 c-118 -53 -152 -226 -63 -319 27 -29 29 -29 15 -5 -59 98
-34 218 56 264 61 32 179 13 214 -35 20 -27 27 -2 10 34 -31 65 -152 97 -232
61z"/>
<path d="M4443 3060 c-72 -29 -44 -153 35 -153 73 0 109 87 57 138 -25 26 -54
30 -92 15z m83 -45 c19 -28 11 -60 -18 -76 -29 -15 -63 -4 -77 27 -27 60 58
105 95 49z"/>
<path d="M8267 3050 c-57 -45 -21 -143 55 -143 39 0 78 41 78 82 0 66 -80 103
-133 61z m98 -34 c17 -26 11 -50 -19 -75 -22 -19 -64 -5 -78 24 -27 59 62 105
97 51z"/>
<path d="M14 3005 c-19 -15 -19 -15 5 -35 23 -20 34 -20 2153 -18 2285 3 2163
0 2137 50 -9 17 -97 18 -2142 18 -1881 0 -2135 -2 -2153 -15z"/>
<path d="M8491 3002 c-26 -50 -148 -47 2137 -50 2119 -2 2130 -2 2153 18 24
20 24 20 5 35 -18 13 -272 15 -2153 15 -2045 0 -2133 -1 -2142 -18z"/>
<path d="M5574 2960 c-91 -14 -195 -74 -207 -120 -3 -11 3 -30 13 -43 17 -20
26 -22 112 -21 81 1 109 7 213 43 142 48 126 52 -43 11 -134 -33 -217 -38
-248 -16 -18 14 -18 15 10 45 47 49 118 74 226 79 52 2 115 -1 140 -7 63 -14
62 -6 -2 12 -71 20 -152 27 -214 17z"/>
<path d="M7090 2960 c-55 -8 -133 -30 -128 -35 2 -2 24 1 48 6 25 6 88 9 140
7 108 -5 179 -30 226 -79 28 -30 28 -31 10 -45 -31 -22 -114 -17 -248 16 -169
41 -185 37 -43 -11 104 -36 132 -42 213 -43 86 -1 95 1 112 21 24 30 16 57
-29 94 -68 56 -197 86 -301 69z"/>
</g>
</svg>
